Coordinates
version=1
nRows=4
nColumns=63
inDegrees=yes

Units are S.I. units (second, meters, Newtons, ...)
If the header above contains a line with 'inDegrees', this indicates whether rotational values are in degrees (yes) or radians (no).

endheader
time	pelvis_tilt	pelvis_list	pelvis_rotation	pelvis_tx	pelvis_ty	pelvis_tz	hip_flexion_r	hip_adduction_r	hip_rotation_r	knee_angle_r	knee_angle_r_beta	ankle_angle_r	subtalar_angle_r	mtp_angle_r	hip_flexion_l	hip_adduction_l	hip_rotation_l	knee_angle_l	knee_angle_l_beta	ankle_angle_l	subtalar_angle_l	mtp_angle_l	L5_S1_Flex_Ext	L5_S1_Lat_Bending	L5_S1_axial_rotation	L4_L5_Flex_Ext	L4_L5_Lat_Bending	L4_L5_axial_rotation	L3_L4_Flex_Ext	L3_L4_Lat_Bending	L3_L4_axial_rotation	L2_L3_Flex_Ext	L2_L3_Lat_Bending	L2_L3_axial_rotation	L1_L2_Flex_Ext	L1_L2_Lat_Bending	L1_L2_axial_rotation	L1_T12_Flex_Ext	L1_T12_Lat_Bending	L1_T12_axial_rotation	Abs_r3	Abs_r2	Abs_r1	Abs_t1	Abs_t2	neck_flexion	neck_bending	neck_rotation	arm_flex_r	arm_add_r	arm_rot_r	elbow_flex_r	pro_sup_r	wrist_flex_r	wrist_dev_r	arm_flex_l	arm_add_l	arm_rot_l	elbow_flex_l	pro_sup_l	wrist_flex_l	wrist_dev_l
      1.09302326	     -1.55119695	     -4.42171287	     95.62244391	      0.26825986	      0.87583904	      0.49042052	      0.93026736	     -3.60015755	      0.97803708	     15.21711446	      0.26558875	     34.33128244	     -5.99425590	      0.00000000	     -3.84187099	      3.28353504	     22.86458195	      1.83673954	      0.03205715	     25.70993024	    -15.80726710	      0.00000000	      0.10021614	     -0.07891621	     -0.85595531	      0.18611140	     -0.10495856	     -0.90945252	      0.16464510	     -0.19187688	     -0.90945252	      0.11453703	     -0.19187688	     -0.74896090	      0.09306071	     -0.16092594	     -0.69546369	      0.05726350	     -0.12224121	     -0.64196648	      0.71583388	     -0.89271598	     -4.76056665	      0.00000000	      0.00000000	     22.01062027	      5.10702274	     11.49635350	     12.84800775	    -14.06780457	     74.42504451	     46.35773299	     27.75774895	      7.26923295	     12.40351937	     -0.00606429	    -10.45572371	     37.70125600	     53.00736248	     82.70191620	     17.21533152	      9.19911622
      1.11627907	     -1.58133289	     -4.43557883	     95.25989619	      0.26879429	      0.87578039	      0.49079260	      1.08477927	     -3.63778311	      1.26152998	     15.29726824	      0.26698770	     34.36205028	     -5.99607059	      0.00000000	     -3.80531060	      3.34143914	     21.94183388	      1.84006554	      0.03211520	     25.90165756	    -15.09093402	      0.00000000	      0.10509051	     -0.08549407	     -0.76885207	      0.19516358	     -0.11370712	     -0.81690532	      0.17265320	     -0.20787029	     -0.81690532	      0.12010794	     -0.20787029	     -0.67274556	      0.09758705	     -0.17433952	     -0.62469230	      0.06004872	     -0.13243032	     -0.57663905	      0.75065099	     -0.96712607	     -4.27612454	      0.00000000	      0.00000000	     21.46706483	      4.85285268	     10.94678309	     12.82056783	    -14.00544234	     74.38619548	     46.09783026	     28.09697444	      7.81902114	     12.43303045	      0.24265689	    -10.48440367	     38.20023841	     52.78861265	     84.25725561	     17.15132490	      8.64224409
      1.13953488	     -1.58207132	     -4.41250069	     95.16238243	      0.26908440	      0.87573968	      0.49135755	      1.06321515	     -3.61054203	      1.49513016	     15.20174159	      0.26532044	     34.28580000	     -6.18624590	      0.00000000	     -3.79629617	      3.34127909	     22.25046316	      1.83013045	      0.03194180	     25.78957851	    -15.65326660	      0.00000000	      0.09862741	     -0.08507898	     -0.75752018	      0.18316095	     -0.11315504	     -0.80486519	      0.16203496	     -0.20686103	     -0.80486519	      0.11272126	     -0.20686103	     -0.66283015	      0.09158541	     -0.17349305	     -0.61548514	      0.05635570	     -0.13178734	     -0.56814013	      0.70448569	     -0.96243041	     -4.21309996	      0.00000000	      0.00000000	     20.79304267	      4.45917530	     10.72550101	     13.27556013	    -14.07344045	     75.52898765	     46.17564373	     28.13208797	      7.50499905	     11.99453705	      0.43967605	    -10.54606604	     38.68120765	     52.66586740	     85.12695105	     16.74922998	      8.11343029
      1.16279070	     -1.60317116	     -4.44074298	     94.91253872	      0.26965684	      0.87568957	      0.49194930	      1.08727443	     -3.63231350	      1.65999675	     15.05811056	      0.26281361	     34.26940644	     -5.96769001	      0.00000000	     -3.73297655	      3.36687626	     22.08458181	      1.83599076	      0.03204408	     25.77902921	    -15.74394885	      0.00000000	      0.09692367	     -0.08725968	     -0.71227914	      0.17999695	     -0.11605537	     -0.75679659	      0.15923590	     -0.21216318	     -0.75679659	      0.11077406	     -0.21216318	     -0.62324425	      0.09000332	     -0.17793993	     -0.57872680	      0.05538219	     -0.13516524	     -0.53420936	      0.69231610	     -0.98709892	     -3.96148289	      0.00000000	      0.00000000	     19.99076807	      3.95278086	     10.38368488	     13.85801016	    -14.10448224	     76.97994803	     46.15777132	     26.91859425	      7.56419308	     11.81619541	      0.62268214	    -10.65975150	     39.38050748	     52.59299615	     85.74510272	     15.63226620	      7.28667208
